<?xml version="1.0" encoding="UTF-8"?>
<!DOCTYPE svg PUBLIC "-//W3C//DTD SVG 1.1//EN" "http://www.w3.org/Graphics/SVG/1.1/DTD/svg11.dtd">
<svg xmlns="http://www.w3.org/2000/svg" version="1.1" width="200px" height="100px" style="shape-rendering:geometricPrecision; text-rendering:geometricPrecision; image-rendering:optimizeQuality; fill-rule:evenodd; clip-rule:evenodd" xmlns:xlink="http://www.w3.org/1999/xlink">
<g><path style="opacity:1" fill="#d93734" d="M 66.5,3.5 C 65.3509,3.79106 64.6842,4.62439 64.5,6C 65.8599,8.27024 66.5266,10.7702 66.5,13.5C 59.8772,12.6204 53.2105,12.287 46.5,12.5C 51.3054,11.5128 56.3054,11.1795 61.5,11.5C 62.6063,10.8506 63.6063,10.5173 64.5,10.5C 63.0906,7.27323 62.0906,3.9399 61.5,0.5C 63.9328,0.272902 65.5994,1.2729 66.5,3.5 Z"/></g>
<g><path style="opacity:1" fill="#ba3735" d="M 61.5,11.5 C 56.3054,11.1795 51.3054,11.5128 46.5,12.5C 43.1667,13.1667 39.8333,13.8333 36.5,14.5C 39.135,12.672 42.135,11.5053 45.5,11C 51.0164,10.1826 56.3497,10.3493 61.5,11.5 Z"/></g>
<g><path style="opacity:1" fill="#f73332" d="M 66.5,3.5 C 69.5725,5.56913 71.9059,8.2358 73.5,11.5C 73.7947,13.7354 73.4614,15.7354 72.5,17.5C 70.4205,18.0444 68.4205,18.8777 66.5,20C 66.9574,20.414 67.2907,20.914 67.5,21.5C 65.5934,22.3699 63.7601,23.3699 62,24.5C 61.5,24.1667 61,23.8333 60.5,23.5C 61.1272,22.5832 61.4606,21.5832 61.5,20.5C 61.8588,18.629 62.8588,17.129 64.5,16C 64.2716,15.6012 63.9382,15.4346 63.5,15.5C 59.4023,14.1773 55.4023,14.5106 51.5,16.5C 49.1432,16.3367 46.8098,16.5034 44.5,17C 41.429,18.9998 38.0957,20.1664 34.5,20.5C 34.5674,21.9587 34.2341,23.2921 33.5,24.5C 32.1266,24.3433 30.7932,24.51 29.5,25C 29.8333,25.3333 30.1667,25.6667 30.5,26C 28.0103,26.4952 26.5103,27.9952 26,30.5C 25.6667,29.5 25.3333,28.5 25,27.5C 23.8738,33.6386 22.7072,33.3053 21.5,26.5C 25.3971,23.3908 29.0638,20.0574 32.5,16.5C 33.5137,15.3263 34.847,14.6596 36.5,14.5C 39.8333,13.8333 43.1667,13.1667 46.5,12.5C 53.2105,12.287 59.8772,12.6204 66.5,13.5C 66.5266,10.7702 65.8599,8.27024 64.5,6C 64.6842,4.62439 65.3509,3.79106 66.5,3.5 Z"/></g>
<g><path style="opacity:0.773" fill="#c33734" d="M 63.5,15.5 C 59.4809,15.6458 55.4809,15.9791 51.5,16.5C 55.4023,14.5106 59.4023,14.1773 63.5,15.5 Z"/></g>
<g><path style="opacity:1" fill="#d33c39" d="M 51.5,16.5 C 45.3125,18.5906 39.3125,21.2573 33.5,24.5C 34.2341,23.2921 34.5674,21.9587 34.5,20.5C 38.0957,20.1664 41.429,18.9998 44.5,17C 46.8098,16.5034 49.1432,16.3367 51.5,16.5 Z"/></g>
<g><path style="opacity:0.2" fill="#c24444" d="M 73.5,11.5 C 75.8814,13.524 76.0481,15.8573 74,18.5C 73.1841,19.8228 72.0174,20.4894 70.5,20.5C 71.1667,19.5 71.8333,18.5 72.5,17.5C 73.4614,15.7354 73.7947,13.7354 73.5,11.5 Z"/></g>
<g><path style="opacity:0.835" fill="#cb3b38" d="M 32.5,16.5 C 29.0638,20.0574 25.3971,23.3908 21.5,26.5C 23.8922,21.7749 27.5588,18.4416 32.5,16.5 Z"/></g>
<g><path style="opacity:1" fill="#db3d3c" d="M 72.5,17.5 C 71.8333,18.5 71.1667,19.5 70.5,20.5C 66.7155,23.9295 62.3821,26.5962 57.5,28.5C 57.144,25.2088 58.4774,22.5422 61.5,20.5C 61.4606,21.5832 61.1272,22.5832 60.5,23.5C 61,23.8333 61.5,24.1667 62,24.5C 63.7601,23.3699 65.5934,22.3699 67.5,21.5C 67.2907,20.914 66.9574,20.414 66.5,20C 68.4205,18.8777 70.4205,18.0444 72.5,17.5 Z"/></g>
<g><path style="opacity:0.325" fill="#c53432" d="M 194.5,31.5 C 192.797,30.3398 192.131,31.0065 192.5,33.5C 191.717,31.6568 191.05,29.6568 190.5,27.5C 190.833,27.1667 191.167,26.8333 191.5,26.5C 193.262,27.6885 194.262,29.3551 194.5,31.5 Z"/></g>
<g><path style="opacity:0.998" fill="#f1f1f1" d="M 36.5,31.5 C 40.9113,31.021 45.078,31.6876 49,33.5C 51.2778,36.8787 50.7778,39.712 47.5,42C 50.3492,44.5594 51.1825,47.7261 50,51.5C 49.0975,52.7014 47.9308,53.5348 46.5,54C 43.1832,54.4983 39.8499,54.665 36.5,54.5C 36.5,46.8333 36.5,39.1667 36.5,31.5 Z M 40.5,34.5 C 44.509,34.0136 46.3423,35.6803 46,39.5C 40.0341,42.7051 38.2008,41.0385 40.5,34.5 Z M 39.5,44.5 C 44.9313,43.0936 47.2647,45.0936 46.5,50.5C 40.5602,52.8989 38.2268,50.8989 39.5,44.5 Z"/></g>
<g><path style="opacity:0.99" fill="#f4f5f5" d="M 85.5,31.5 C 90.1667,31.5 94.8333,31.5 99.5,31.5C 99.5,32.5 99.5,33.5 99.5,34.5C 97.8333,34.5 96.1667,34.5 94.5,34.5C 94.5,40.1667 94.5,45.8333 94.5,51.5C 96.1667,51.5 97.8333,51.5 99.5,51.5C 99.5,52.5 99.5,53.5 99.5,54.5C 94.8333,54.5 90.1667,54.5 85.5,54.5C 85.5,53.5 85.5,52.5 85.5,51.5C 87.1667,51.5 88.8333,51.5 90.5,51.5C 90.5,45.8333 90.5,40.1667 90.5,34.5C 88.8333,34.5 87.1667,34.5 85.5,34.5C 85.5,33.5 85.5,32.5 85.5,31.5 Z"/></g>
<g><path style="opacity:0.951" fill="#f6f6f6" d="M 135.5,31.5 C 136.5,31.5 137.5,31.5 138.5,31.5C 138.5,34.5 138.5,37.5 138.5,40.5C 140.833,40.5 143.167,40.5 145.5,40.5C 145.5,37.5 145.5,34.5 145.5,31.5C 146.5,31.5 147.5,31.5 148.5,31.5C 148.222,38.379 148.555,45.2123 149.5,52C 148.968,54.0197 147.635,54.853 145.5,54.5C 145.5,51.1667 145.5,47.8333 145.5,44.5C 143.167,44.5 140.833,44.5 138.5,44.5C 138.223,47.4475 138.556,50.2809 139.5,53C 138.437,54.1882 137.103,54.6882 135.5,54.5C 135.5,46.8333 135.5,39.1667 135.5,31.5 Z"/></g>
<g><path style="opacity:0.196" fill="#f1f2f2" d="M 158.5,31.5 C 163.844,31.334 169.177,31.5006 174.5,32C 175.833,32.6667 175.833,33.3333 174.5,34C 172.527,34.4955 170.527,34.6621 168.5,34.5C 168.5,41.1667 168.5,47.8333 168.5,54.5C 167.167,54.5 165.833,54.5 164.5,54.5C 164.5,47.8333 164.5,41.1667 164.5,34.5C 162.5,34.5 160.5,34.5 158.5,34.5C 158.5,33.5 158.5,32.5 158.5,31.5 Z"/></g>
<g><path style="opacity:0.979" fill="#f5f5f5" d="M 113.5,31.5 C 118.691,30.2339 122.358,31.9006 124.5,36.5C 123.833,36.8333 123.167,37.1667 122.5,37.5C 119.96,34.1514 117.127,33.8181 114,36.5C 113.333,40.8333 113.333,45.1667 114,49.5C 118.891,52.8881 121.058,51.5548 120.5,45.5C 119.167,45.5 117.833,45.5 116.5,45.5C 116.5,44.5 116.5,43.5 116.5,42.5C 119.167,42.5 121.833,42.5 124.5,42.5C 126.298,51.7911 122.632,55.6244 113.5,54C 112.667,53.1667 111.833,52.3333 111,51.5C 110.333,45.8333 110.333,40.1667 111,34.5C 112.045,33.6266 112.878,32.6266 113.5,31.5 Z"/></g>
<g><path style="opacity:1" fill="#e93736" d="M 33.5,24.5 C 27.3262,29.9957 22.3262,36.329 18.5,43.5C 17.5207,44.7653 16.5207,46.0986 15.5,47.5C 14.5985,44.205 14.5985,40.8717 15.5,37.5C 16.2145,33.0666 18.2145,29.4 21.5,26.5C 22.7072,33.3053 23.8738,33.6386 25,27.5C 25.3333,28.5 25.6667,29.5 26,30.5C 26.5103,27.9952 28.0103,26.4952 30.5,26C 30.1667,25.6667 29.8333,25.3333 29.5,25C 30.7932,24.51 32.1266,24.3433 33.5,24.5 Z"/></g>
<g><path style="opacity:0.99" fill="#f4f4f4" d="M 61.5,31.5 C 65.9113,31.021 70.078,31.6876 74,33.5C 76.5405,38.097 75.7071,41.9304 71.5,45C 73.5328,47.8959 74.8662,51.0626 75.5,54.5C 71.0754,53.3927 68.7421,50.3927 68.5,45.5C 67.1667,45.5 65.8333,45.5 64.5,45.5C 64.5,48.5 64.5,51.5 64.5,54.5C 62.8967,54.6882 61.5634,54.1882 60.5,53C 61.4799,45.9213 61.8132,38.7546 61.5,31.5 Z M 64.5,34.5 C 70.2967,33.5199 72.2967,35.6865 70.5,41C 68.5273,41.4955 66.5273,41.6621 64.5,41.5C 64.5,39.1667 64.5,36.8333 64.5,34.5 Z"/></g>
<g><path style="opacity:1" fill="#f43331" d="M 194.5,31.5 C 196.213,32.6354 196.88,34.302 196.5,36.5C 196.827,45.6275 196.161,54.6275 194.5,63.5C 192.745,65.9143 190.411,67.581 187.5,68.5C 183.734,68.5238 183.567,67.8571 187,66.5C 187.49,65.2068 187.657,63.8734 187.5,62.5C 189.335,61.8777 190.502,60.5444 191,58.5C 192.237,54.9399 192.737,51.2733 192.5,47.5C 192.5,42.8333 192.5,38.1667 192.5,33.5C 192.131,31.0065 192.797,30.3398 194.5,31.5 Z"/></g>
<g><path style="opacity:1" fill="#d23639" d="M 196.5,36.5 C 197.29,37.6085 197.79,38.9419 198,40.5C 198.667,45.1667 198.667,49.8333 198,54.5C 197.495,57.865 196.328,60.865 194.5,63.5C 196.161,54.6275 196.827,45.6275 196.5,36.5 Z"/></g>
<g><path style="opacity:0.998" fill="#d5383b" d="M 15.5,37.5 C 14.5985,40.8717 14.5985,44.205 15.5,47.5C 16.5207,46.0986 17.5207,44.7653 18.5,43.5C 17.0949,47.3852 16.0949,51.3852 15.5,55.5C 13.5864,52.3157 12.9197,48.649 13.5,44.5C 13.4095,41.8478 14.0762,39.5145 15.5,37.5 Z"/></g>
<g><path style="opacity:0.341" fill="#a23835" d="M 13.5,44.5 C 12.9197,48.649 13.5864,52.3157 15.5,55.5C 14.8407,58.4082 14.0074,58.7416 13,56.5C 12.1881,52.3112 12.3547,48.3112 13.5,44.5 Z"/></g>
<g><path style="opacity:0.226" fill="#e4e4e4" d="M 179.5,59.5 C 180.091,58.8485 180.757,58.1818 181.5,57.5C 132.5,56.1667 83.5,56.1667 34.5,57.5C 50.3281,58.1667 65.9948,58.8333 81.5,59.5C 77.9581,59.1872 74.6248,59.5206 71.5,60.5C 69.2362,59.7814 66.9029,59.448 64.5,59.5C 54.1667,59.5 43.8333,59.5 33.5,59.5C 33.5,58.1667 33.5,56.8333 33.5,55.5C 83.1667,55.5 132.833,55.5 182.5,55.5C 182.5,56.8333 182.5,58.1667 182.5,59.5C 181.5,59.5 180.5,59.5 179.5,59.5 Z"/></g>
<g><path style="opacity:1" fill="#fefdfe" d="M 179.5,59.5 C 178.833,59.5 178.167,59.5 177.5,59.5C 145.833,58.1667 114.167,58.1667 82.5,59.5C 82.1667,59.5 81.8333,59.5 81.5,59.5C 65.9948,58.8333 50.3281,58.1667 34.5,57.5C 83.5,56.1667 132.5,56.1667 181.5,57.5C 180.757,58.1818 180.091,58.8485 179.5,59.5 Z"/></g>
<g><path style="opacity:0.215" fill="#eaeaeb" d="M 82.5,59.5 C 114.167,58.1667 145.833,58.1667 177.5,59.5C 164.833,59.5 152.167,59.5 139.5,59.5C 139.334,66.175 139.5,72.8417 140,79.5C 142.684,79.3062 145.517,79.1395 148.5,79C 149.337,80.0113 149.67,81.1779 149.5,82.5C 144.833,82.5 140.167,82.5 135.5,82.5C 135.5,74.8333 135.5,67.1667 135.5,59.5C 131.833,59.5 128.167,59.5 124.5,59.5C 124.823,66.0221 124.49,72.3554 123.5,78.5C 123.829,72.4632 123.496,66.4632 122.5,60.5C 121.833,66.6535 121.167,72.6535 120.5,78.5C 120.5,72.1667 120.5,65.8333 120.5,59.5C 118.167,59.5 115.833,59.5 113.5,59.5C 113.249,65.8918 113.582,72.2252 114.5,78.5C 113.883,78.3893 113.383,78.056 113,77.5C 112.667,71.8333 112.333,66.1667 112,60.5C 111.5,66.8246 111.334,73.1579 111.5,79.5C 110.509,73.021 110.176,66.3543 110.5,59.5C 105.305,59.1795 100.305,59.5128 95.5,60.5C 93.5,60.5 91.5,60.5 89.5,60.5C 87.3926,59.5318 85.0593,59.1984 82.5,59.5 Z M 120.5,78.5 C 118.5,79.8333 116.5,79.8333 114.5,78.5C 113.582,72.2252 113.249,65.8918 113.5,59.5C 115.833,59.5 118.167,59.5 120.5,59.5C 120.5,65.8333 120.5,72.1667 120.5,78.5 Z"/></g>
<g><path style="opacity:1" fill="#d63d3e" d="M 192.5,47.5 C 192.737,51.2733 192.237,54.9399 191,58.5C 190.502,60.5444 189.335,61.8777 187.5,62.5C 189.644,57.5617 191.311,52.5617 192.5,47.5 Z"/></g>
<g><path style="opacity:0.967" fill="#f6f6f6" d="M 89.5,60.5 C 91.5,60.5 93.5,60.5 95.5,60.5C 97.0174,60.5106 98.1841,61.1772 99,62.5C 99.6667,68.1667 99.6667,73.8333 99,79.5C 94.1993,83.7492 89.866,83.4159 86,78.5C 85.3333,73.5 85.3333,68.5 86,63.5C 86.4224,61.5743 87.5891,60.5743 89.5,60.5 Z M 90.5,62.5 C 93.2385,61.9648 95.0718,62.9648 96,65.5C 96.6667,69.1667 96.6667,72.8333 96,76.5C 94.7758,79.473 92.7758,80.1397 90,78.5C 88.5022,73.1356 88.6689,67.8023 90.5,62.5 Z"/></g>
<g><path style="opacity:0.977" fill="#fcfcfc" d="M 114.5,78.5 C 116.5,79.8333 118.5,79.8333 120.5,78.5C 121.167,72.6535 121.833,66.6535 122.5,60.5C 123.496,66.4632 123.829,72.4632 123.5,78.5C 122.485,81.4359 120.318,82.7693 117,82.5C 114.345,82.876 112.512,81.876 111.5,79.5C 111.334,73.1579 111.5,66.8246 112,60.5C 112.333,66.1667 112.667,71.8333 113,77.5C 113.383,78.056 113.883,78.3893 114.5,78.5 Z"/></g>
<g><path style="opacity:1" fill="#de3838" d="M 187.5,62.5 C 187.657,63.8734 187.49,65.2068 187,66.5C 183.567,67.8571 183.734,68.5238 187.5,68.5C 190.411,67.581 192.745,65.9143 194.5,63.5C 191.894,70.4385 187.228,75.4385 180.5,78.5C 180.746,75.5299 182.412,74.1966 185.5,74.5C 185.785,72.712 185.452,71.0453 184.5,69.5C 182.408,71.6049 180.075,73.2716 177.5,74.5C 181.24,70.7672 184.573,66.7672 187.5,62.5 Z"/></g>
<g><path style="opacity:0.325" fill="#903431" d="M 167.5,73.5 C 167.784,71.5853 167.451,69.9187 166.5,68.5C 166.783,67.7109 167.283,67.0442 168,66.5C 168.796,69.0385 168.629,71.3718 167.5,73.5 Z"/></g>
<g><path style="opacity:0.974" fill="#f6f6f6" d="M 64.5,59.5 C 66.9029,59.448 69.2362,59.7814 71.5,60.5C 73.7012,60.8584 75.0345,62.1917 75.5,64.5C 74.8333,64.8333 74.1667,65.1667 73.5,65.5C 71.5,64.5 69.5,63.5 67.5,62.5C 65.8333,62.8333 64.8333,63.8333 64.5,65.5C 68.196,67.7808 71.696,70.4475 75,73.5C 75.659,81.1153 72.159,83.9486 64.5,82C 61.7776,80.7275 60.4443,78.5608 60.5,75.5C 63.1085,75.6056 65.1085,76.7723 66.5,79C 70.6667,80.1667 72.1667,78.6667 71,74.5C 67.6896,73.0082 64.6896,71.0082 62,68.5C 60.9302,64.8579 61.7636,61.8579 64.5,59.5 Z"/></g>
<g><path style="opacity:1" fill="#f23634" d="M 180.5,78.5 C 177.854,79.4866 175.188,80.4866 172.5,81.5C 171.614,80.675 171.281,79.675 171.5,78.5C 173.147,76.6736 175.147,75.3403 177.5,74.5C 180.075,73.2716 182.408,71.6049 184.5,69.5C 185.452,71.0453 185.785,72.712 185.5,74.5C 182.412,74.1966 180.746,75.5299 180.5,78.5 Z"/></g>
<g><path style="opacity:1" fill="#f03534" d="M 160.5,87.5 C 158.414,86.8515 157.414,85.3515 157.5,83C 158.276,79.2775 159.943,76.1108 162.5,73.5C 164.318,71.9219 165.318,72.4219 165.5,75C 163.966,79.6644 164.633,83.9977 167.5,88C 165.115,88.5564 162.782,88.3897 160.5,87.5 Z"/></g>
<g><path style="opacity:0.996" fill="#dd3736" d="M 166.5,68.5 C 167.451,69.9187 167.784,71.5853 167.5,73.5C 167.149,75.8695 166.982,78.2028 167,80.5C 168.33,79.4178 169.83,78.7512 171.5,78.5C 171.281,79.675 171.614,80.675 172.5,81.5C 175.188,80.4866 177.854,79.4866 180.5,78.5C 179.942,79.7899 178.942,80.6232 177.5,81C 174.263,82.4523 170.93,83.619 167.5,84.5C 169.708,87.0536 172.041,89.5536 174.5,92C 174,92.5 173.5,93 173,93.5C 168.423,92.1524 164.256,90.1524 160.5,87.5C 162.782,88.3897 165.115,88.5564 167.5,88C 164.633,83.9977 163.966,79.6644 165.5,75C 165.318,72.4219 164.318,71.9219 162.5,73.5C 163.08,71.2512 164.413,69.5846 166.5,68.5 Z"/></g>
</svg>
